<?xml version="1.0" encoding="UTF-8" standalone="no"?>
<svg
   xmlns:dc="http://purl.org/dc/elements/1.1/"
   xmlns:cc="http://creativecommons.org/ns#"
   xmlns:rdf="http://www.w3.org/1999/02/22-rdf-syntax-ns#"
   xmlns:svg="http://www.w3.org/2000/svg"
   xmlns="http://www.w3.org/2000/svg"
   id="svg8"
   version="1.1"
   viewBox="0 0 148.77165 141.76407"
   height="141.76407mm"
   width="148.77165mm">
  <defs
     id="defs2" />
  <metadata
     id="metadata5">
    <rdf:RDF>
      <cc:Work
         rdf:about="">
        <dc:format>image/svg+xml</dc:format>
        <dc:type
           rdf:resource="http://purl.org/dc/dcmitype/StillImage" />
        <dc:title></dc:title>
      </cc:Work>
    </rdf:RDF>
  </metadata>
  <g
     transform="translate(-8.6249833,-14.678964)"
     id="layer1">
    <path
       d="m 84.412907,100.74423 c -1.50629,2.7728 -5.316855,2.85675 -7.654181,1.16453 -3.593192,-2.601474 -3.57768,-7.861059 -0.906894,-11.106426 3.650027,-4.435276 10.422128,-4.311701 14.558666,-0.649263 5.287876,4.681818 5.052243,12.990689 0.391632,18.010909 -5.70585,6.1461 -15.563308,5.79645 -21.46315,0.134 -7.00765,-6.72568 -6.542917,-18.138382 0.123629,-24.915393 7.743001,-7.871302 20.715066,-7.290856 28.367635,0.38126 8.736376,8.758691 8.039816,23.292863 -0.638891,31.819883 -9.773269,9.60244 -25.871463,8.7895 -35.27212,-0.89653 C 51.449984,103.90015 52.3795,86.236541 63.073386,75.962841 74.873642,64.626242 94.103705,65.672464 105.24999,77.374624 c 12.20437,12.813014 11.04134,33.610336 -1.66941,45.628846 -1.25778,1.18928 -2.60794,2.28064 -4.033922,3.26193 m -58.725227,25.59174 7.644466,-47.94455 -34.47122,-33.060162 47.960239,-7.545359 20.789894,-43.000232 21.99659,43.281254 47.32008,6.484561 -34.36559,34.294648 8.45552,47.00791 -43.235699,-22.086 z"
       style="fill:none;fill-rule:evenodd;stroke:#000000;stroke-width:5;stroke-miterlimit:4;stroke-dasharray:none"
       id="path817" />
  </g>
</svg>
