  <svg xmlns="http://www.w3.org/2000/svg">
    <symbol id="water" viewBox="0 0 250 250">
        <title>Water symbol</title>
        <path
        d="m 138.33928,169.24406 c -1.91195,0.45974 -1.56301,-2.35045 -0.76412,-3.17779 2.16494,-2.24203 5.74397,-0.62409 7.1197,1.64954 2.46086,4.06699 -0.078,9.16066 -4.0632,11.06161 -5.84842,2.78972 -12.63366,-0.7734 -15.00353,-6.47686 -3.15867,-7.60182 1.46427,-16.12794 8.89053,-18.94544 9.34519,-3.54554 19.63268,2.15247 22.88735,11.30419 3.94185,11.08397 -2.83905,23.14339 -13.71786,26.82927 -12.82029,4.34368 -26.65781,-3.52463 -30.77117,-16.13153 -4.74904,-14.55516 4.20951,-30.17473 18.54519,-34.71309 16.28911,-5.15677 33.69338,4.89393 38.655,20.95886 2.72398,8.81982 1.53802,18.55115 -3.05169,26.54005 M 65.765264,170.00001 c 1.79371,0.33356 1.33459,-2.25332 0.5544,-2.98126 -2.11426,-1.97269 -5.35215,-0.30062 -6.51692,1.87246 -2.0835,3.88715 0.51504,8.4839 4.29933,10.05259 5.55359,2.3021 11.66814,-1.3272 13.58824,-6.7262 2.5592,-7.19601 -2.1362,-14.87232 -9.15306,-17.1239 -8.83,-2.83339 -18.08632,2.94323 -20.65956,11.57992 -3.11654,10.4602 3.74906,21.30593 14.00679,24.19523 12.08838,3.40493 24.52903,-4.55412 27.73088,-16.43366 3.69667,-13.7154 -5.35867,-27.75447 -18.86052,-31.26654 -15.34166,-3.99064 -30.98155,6.16286 -34.8022,21.28738 -2.09758,8.30353 -0.52842,17.26262 4.11024,24.44278 m 63.566896,-79.58035 c 1.83916,0.12375 0.74056,2.5402 -0.20568,3.0568 -2.56426,1.39995 -5.313406,-1.0491 -5.907916,-3.46816 -1.06343,-4.32713 2.633376,-8.17362 6.730636,-8.75903 6.01289,-0.859132 11.08607,4.22739 11.61015,9.99311 0.69852,7.68479 -5.82333,14.01884 -13.25559,14.46127 -9.352736,0.55675 -16.961716,-7.41981 -17.312386,-16.51807 -0.4247,-11.019212 9.01651,-19.910382 19.780546,-20.163512 12.68504,-0.29829 22.86266,10.61334 23.01463,23.043032 0.17545,14.35056 -12.21026,25.81735 -26.30551,25.86574 -16.015906,0.055 -28.773726,-13.80724 -28.716856,-29.56798 0.0638,-17.681162 15.40427,-31.731352 32.830456,-31.567982 0.54733,0.005 1.09453,0.0236 1.64095,0.0554"
        style="fill:none;fill-rule:evenodd;stroke:#000000;stroke-width:5;stroke-miterlimit:4;stroke-dasharray:none"
        id="path4556" />
    </symbol>

    <symbol id="gold" viewBox="0 0 250 250">
        <title>Gold symbol</title>
        <path
        d="m 108.85714,148.83333 c -0.3194,-1.13169 1.36791,-0.98888 1.88094,-0.53087 1.39028,1.2412 0.50718,3.41758 -0.81921,4.29275 -2.3726,1.56549 -5.47554,0.16752 -6.70456,-2.16929 -1.80363,-3.42936 0.16681,-7.56699 3.51937,-9.11636 4.46843,-2.06508 9.67106,0.49794 11.52817,4.86944 2.337,5.5011 -0.82722,11.78132 -6.21952,13.93999 -6.53079,2.61443 -13.895093,-1.15542 -16.351791,-7.56961 -2.895135,-7.55889 1.482907,-16.01107 8.919681,-18.7636 8.58605,-3.1779 18.12852,1.80994 21.17541,10.26976 3.46206,9.6126 -2.13664,20.24701 -11.61984,23.58722 -10.63872,3.74721 -22.366236,-2.46311 -25.999023,-12.96992 -4.033083,-11.66455 2.789402,-24.48603 14.319993,-28.41083 12.69017,-4.3195 26.60626,3.11557 30.82264,15.67007 2.98389,8.8847 0.7381,18.89412 -5.55345,25.80006 m 7.55952,45.35713 -41.446451,-9.4597 -40.82266,-11.8661 -3.810953,-42.34113 -1.329561,-42.49148 39.091158,-16.708562 40.000947,-14.395078 27.97062,32.01467 26.0515,33.59484 -21.80437,36.49471 z M 151.19048,170 l -24.91626,12.05381 -25.57821,10.57682 -19.163402,-19.97194 -17.963255,-21.05791 13.072624,-24.39714 14.47631,-23.59133 27.242723,4.89368 26.91011,6.47767 3.76431,27.4216 z"
        style="fill:none;fill-rule:evenodd;stroke:#000000;stroke-width:5;stroke-miterlimit:4;stroke-dasharray:none"
        id="path824" />
    </symbol>

    <symbol id="wood" viewBox="0 0 250 250">
        <title>Wood symbol</title>
        <path
        d="m 86.178576,130.69047 c 0.94596,-3.15421 4.71851,-0.28104 5.24249,1.57225 1.41997,5.02229 -3.93749,8.83799 -8.387,8.91274 -7.959126,0.13372 -13.190556,-7.83284 -12.582976,-15.20174 0.89164,-10.81417 11.765906,-17.63028 22.016486,-16.25324 13.662424,1.83538 22.104614,15.71039 19.923484,28.83125 -2.74472,16.51125 -19.659814,26.59632 -35.64599,23.59372 C 57.38366,158.50889 45.64704,138.53352 49.4811,119.68471 53.9994,97.472041 77.04681,84.078731 98.756586,88.750501 123.82138,94.144241 138.87469,120.2711 133.36105,144.84073 127.09609,172.75831 97.884766,189.47388 70.45606,183.11544 39.6852,175.98222 21.30574,143.6829 28.51111,113.3957 36.51043,79.771173 71.90033,59.72663 105.04559,67.78051 c 36.47851,8.863818 58.18906,47.34625 49.28544,83.34923 -4.89987,19.81331 -18.37986,36.84473 -36.3529,46.44964 M 26.45833,55.095232 H 154.97024 V 201.74999 H 26.45833 Z"
        style="fill:none;fill-rule:evenodd;stroke:#000000;stroke-width:5;stroke-miterlimit:4;stroke-dasharray:none"
        id="path817" />
    </symbol>

    <symbol id="fire" viewBox="0 0 250 250">
        <title>Fire symbol</title>
        <path
        d="m 121.70834,146.56548 c -0.51324,-1.12586 1.26441,-1.24731 1.87125,-0.85305 1.64447,1.0684 1.07427,3.47312 -0.16515,4.59553 -2.21702,2.00772 -5.66776,1.0503 -7.31982,-1.18334 -2.42448,-3.27795 -1.03724,-7.89636 2.20153,-10.04411 4.31675,-2.86263 10.13756,-1.02951 12.76841,3.21972 3.31064,5.34722 1.02468,12.38492 -4.23792,15.4927 -6.37372,3.76394 -14.63576,1.02158 -18.21699,-5.25611 -4.22036,-7.39803 -1.01954,-16.88878 6.2743,-20.94128 8.42103,-4.67878 19.14325,-1.01823 23.66558,7.29249 5.13855,9.44317 1.01741,21.39874 -8.31069,26.38987 -10.46472,5.59929 -23.65498,1.01696 -29.11416,-9.32888 -6.060733,-11.48584 -1.01678,-25.91177 10.34707,-31.83845 12.50665,-6.5227 28.169,-1.01681 34.56275,11.36526 4.52479,8.76266 3.79067,19.53178 -1.64759,27.7206 M 123.22023,65.678571 96.005951,124.64285 68.791666,95.160713 l 0.755954,80.886907 108.85714,0.75595 -1.51191,-83.910715 -27.21428,30.994055 z"
        style="fill:none;fill-rule:evenodd;stroke:#000000;stroke-width:5;stroke-miterlimit:4;stroke-dasharray:none"
        id="path819" />
    </symbol>

    <symbol id="earth" viewBox="0 0 250 250">
        <title>Earth symbol</title>
        <path
        d="m 84.412907,100.74423 c -1.50629,2.7728 -5.316855,2.85675 -7.654181,1.16453 -3.593192,-2.601474 -3.57768,-7.861059 -0.906894,-11.106426 3.650027,-4.435276 10.422128,-4.311701 14.558666,-0.649263 5.287876,4.681818 5.052243,12.990689 0.391632,18.010909 -5.70585,6.1461 -15.563308,5.79645 -21.46315,0.134 -7.00765,-6.72568 -6.542917,-18.138382 0.123629,-24.915393 7.743001,-7.871302 20.715066,-7.290856 28.367635,0.38126 8.736376,8.758691 8.039816,23.292863 -0.638891,31.819883 -9.773269,9.60244 -25.871463,8.7895 -35.27212,-0.89653 C 51.449984,103.90015 52.3795,86.236541 63.073386,75.962841 74.873642,64.626242 94.103705,65.672464 105.24999,77.374624 c 12.20437,12.813014 11.04134,33.610336 -1.66941,45.628846 -1.25778,1.18928 -2.60794,2.28064 -4.033922,3.26193 m -58.725227,25.59174 7.644466,-47.94455 -34.47122,-33.060162 47.960239,-7.545359 20.789894,-43.000232 21.99659,43.281254 47.32008,6.484561 -34.36559,34.294648 8.45552,47.00791 -43.235699,-22.086 z"
        style="fill:none;fill-rule:evenodd;stroke:#000000;stroke-width:5;stroke-miterlimit:4;stroke-dasharray:none"
        id="path817" />
    </symbol>
    
</svg>
