<?xml version="1.0" encoding="UTF-8" standalone="no"?>
<svg
   xmlns:dc="http://purl.org/dc/elements/1.1/"
   xmlns:cc="http://creativecommons.org/ns#"
   xmlns:rdf="http://www.w3.org/1999/02/22-rdf-syntax-ns#"
   xmlns:svg="http://www.w3.org/2000/svg"
   xmlns="http://www.w3.org/2000/svg"
   id="svg8"
   version="1.1"
   viewBox="0 0 116.70928 119.64609"
   height="119.64609mm"
   width="116.70928mm">
  <defs
     id="defs2" />
  <metadata
     id="metadata5">
    <rdf:RDF>
      <cc:Work
         rdf:about="">
        <dc:format>image/svg+xml</dc:format>
        <dc:type
           rdf:resource="http://purl.org/dc/dcmitype/StillImage" />
        <dc:title></dc:title>
      </cc:Work>
    </rdf:RDF>
  </metadata>
  <g
     transform="translate(-66.231186,-59.675219)"
     id="layer1">
    <path
       id="path817"
       d="M 182.94047,141.27381 Z"
       style="fill:none;stroke:#000000;stroke-width:0.26458332px;stroke-linecap:butt;stroke-linejoin:miter;stroke-opacity:1" />
    <path
       d="m 121.70834,146.56548 c -0.51324,-1.12586 1.26441,-1.24731 1.87125,-0.85305 1.64447,1.0684 1.07427,3.47312 -0.16515,4.59553 -2.21702,2.00772 -5.66776,1.0503 -7.31982,-1.18334 -2.42448,-3.27795 -1.03724,-7.89636 2.20153,-10.04411 4.31675,-2.86263 10.13756,-1.02951 12.76841,3.21972 3.31064,5.34722 1.02468,12.38492 -4.23792,15.4927 -6.37372,3.76394 -14.63576,1.02158 -18.21699,-5.25611 -4.22036,-7.39803 -1.01954,-16.88878 6.2743,-20.94128 8.42103,-4.67878 19.14325,-1.01823 23.66558,7.29249 5.13855,9.44317 1.01741,21.39874 -8.31069,26.38987 -10.46472,5.59929 -23.65498,1.01696 -29.11416,-9.32888 -6.060733,-11.48584 -1.01678,-25.91177 10.34707,-31.83845 12.50665,-6.5227 28.169,-1.01681 34.56275,11.36526 4.52479,8.76266 3.79067,19.53178 -1.64759,27.7206 M 123.22023,65.678571 96.005951,124.64285 68.791666,95.160713 l 0.755954,80.886907 108.85714,0.75595 -1.51191,-83.910715 -27.21428,30.994055 z"
       style="fill:none;fill-rule:evenodd;stroke:#000000;stroke-width:5;stroke-miterlimit:4;stroke-dasharray:none"
       id="path819" />
  </g>
</svg>
