<?xml version="1.0" encoding="UTF-8" standalone="no"?>
<svg
   xmlns:dc="http://purl.org/dc/elements/1.1/"
   xmlns:cc="http://creativecommons.org/ns#"
   xmlns:rdf="http://www.w3.org/1999/02/22-rdf-syntax-ns#"
   xmlns:svg="http://www.w3.org/2000/svg"
   xmlns="http://www.w3.org/2000/svg"
   id="svg8"
   version="1.1"
   viewBox="0 0 138.688 143.00951"
   height="143.00951mm"
   width="138.688mm">
  <defs
     id="defs2" />
  <metadata
     id="metadata5">
    <rdf:RDF>
      <cc:Work
         rdf:about="">
        <dc:format>image/svg+xml</dc:format>
        <dc:type
           rdf:resource="http://purl.org/dc/dcmitype/StillImage" />
        <dc:title></dc:title>
      </cc:Work>
    </rdf:RDF>
  </metadata>
  <g
     transform="translate(-45.353683,-72.896911)"
     id="layer1">
    <path
       d="m 108.85714,148.83333 c -0.3194,-1.13169 1.36791,-0.98888 1.88094,-0.53087 1.39028,1.2412 0.50718,3.41758 -0.81921,4.29275 -2.3726,1.56549 -5.47554,0.16752 -6.70456,-2.16929 -1.80363,-3.42936 0.16681,-7.56699 3.51937,-9.11636 4.46843,-2.06508 9.67106,0.49794 11.52817,4.86944 2.337,5.5011 -0.82722,11.78132 -6.21952,13.93999 -6.53079,2.61443 -13.895093,-1.15542 -16.351791,-7.56961 -2.895135,-7.55889 1.482907,-16.01107 8.919681,-18.7636 8.58605,-3.1779 18.12852,1.80994 21.17541,10.26976 3.46206,9.6126 -2.13664,20.24701 -11.61984,23.58722 -10.63872,3.74721 -22.366236,-2.46311 -25.999023,-12.96992 -4.033083,-11.66455 2.789402,-24.48603 14.319993,-28.41083 12.69017,-4.3195 26.60626,3.11557 30.82264,15.67007 2.98389,8.8847 0.7381,18.89412 -5.55345,25.80006 m 7.55952,45.35713 -41.446451,-9.4597 -40.82266,-11.8661 -3.810953,-42.34113 -1.329561,-42.49148 39.091158,-16.708562 40.000947,-14.395078 27.97062,32.01467 26.0515,33.59484 -21.80437,36.49471 z M 151.19048,170 l -24.91626,12.05381 -25.57821,10.57682 -19.163402,-19.97194 -17.963255,-21.05791 13.072624,-24.39714 14.47631,-23.59133 27.242723,4.89368 26.91011,6.47767 3.76431,27.4216 z"
       style="fill:none;fill-rule:evenodd;stroke:#000000;stroke-width:5;stroke-miterlimit:4;stroke-dasharray:none"
       id="path824" />
  </g>
</svg>
