<?xml version="1.0" encoding="UTF-8" standalone="no"?>
<svg
   xmlns:dc="http://purl.org/dc/elements/1.1/"
   xmlns:cc="http://creativecommons.org/ns#"
   xmlns:rdf="http://www.w3.org/1999/02/22-rdf-syntax-ns#"
   xmlns:svg="http://www.w3.org/2000/svg"
   xmlns="http://www.w3.org/2000/svg"
   id="svg8"
   version="1.1"
   viewBox="0 0 141.53062 122.00613"
   height="122.00613mm"
   width="141.53062mm">
  <defs
     id="defs2" />
  <metadata
     id="metadata5">
    <rdf:RDF>
      <cc:Work
         rdf:about="">
        <dc:format>image/svg+xml</dc:format>
        <dc:type
           rdf:resource="http://purl.org/dc/dcmitype/StillImage" />
        <dc:title></dc:title>
      </cc:Work>
    </rdf:RDF>
  </metadata>
  <g
     transform="translate(-32.535406,-73.192264)"
     id="layer1">
    <path
       d="m 138.33928,169.24406 c -1.91195,0.45974 -1.56301,-2.35045 -0.76412,-3.17779 2.16494,-2.24203 5.74397,-0.62409 7.1197,1.64954 2.46086,4.06699 -0.078,9.16066 -4.0632,11.06161 -5.84842,2.78972 -12.63366,-0.7734 -15.00353,-6.47686 -3.15867,-7.60182 1.46427,-16.12794 8.89053,-18.94544 9.34519,-3.54554 19.63268,2.15247 22.88735,11.30419 3.94185,11.08397 -2.83905,23.14339 -13.71786,26.82927 -12.82029,4.34368 -26.65781,-3.52463 -30.77117,-16.13153 -4.74904,-14.55516 4.20951,-30.17473 18.54519,-34.71309 16.28911,-5.15677 33.69338,4.89393 38.655,20.95886 2.72398,8.81982 1.53802,18.55115 -3.05169,26.54005 M 65.765264,170.00001 c 1.79371,0.33356 1.33459,-2.25332 0.5544,-2.98126 -2.11426,-1.97269 -5.35215,-0.30062 -6.51692,1.87246 -2.0835,3.88715 0.51504,8.4839 4.29933,10.05259 5.55359,2.3021 11.66814,-1.3272 13.58824,-6.7262 2.5592,-7.19601 -2.1362,-14.87232 -9.15306,-17.1239 -8.83,-2.83339 -18.08632,2.94323 -20.65956,11.57992 -3.11654,10.4602 3.74906,21.30593 14.00679,24.19523 12.08838,3.40493 24.52903,-4.55412 27.73088,-16.43366 3.69667,-13.7154 -5.35867,-27.75447 -18.86052,-31.26654 -15.34166,-3.99064 -30.98155,6.16286 -34.8022,21.28738 -2.09758,8.30353 -0.52842,17.26262 4.11024,24.44278 m 63.566896,-79.58035 c 1.83916,0.12375 0.74056,2.5402 -0.20568,3.0568 -2.56426,1.39995 -5.313406,-1.0491 -5.907916,-3.46816 -1.06343,-4.32713 2.633376,-8.17362 6.730636,-8.75903 6.01289,-0.859132 11.08607,4.22739 11.61015,9.99311 0.69852,7.68479 -5.82333,14.01884 -13.25559,14.46127 -9.352736,0.55675 -16.961716,-7.41981 -17.312386,-16.51807 -0.4247,-11.019212 9.01651,-19.910382 19.780546,-20.163512 12.68504,-0.29829 22.86266,10.61334 23.01463,23.043032 0.17545,14.35056 -12.21026,25.81735 -26.30551,25.86574 -16.015906,0.055 -28.773726,-13.80724 -28.716856,-29.56798 0.0638,-17.681162 15.40427,-31.731352 32.830456,-31.567982 0.54733,0.005 1.09453,0.0236 1.64095,0.0554"
       style="fill:none;fill-rule:evenodd;stroke:#000000;stroke-width:5;stroke-miterlimit:4;stroke-dasharray:none"
       id="path4556" />
  </g>
</svg>
