<?xml version="1.0" encoding="UTF-8" standalone="no"?>
<svg
   xmlns:dc="http://purl.org/dc/elements/1.1/"
   xmlns:cc="http://creativecommons.org/ns#"
   xmlns:rdf="http://www.w3.org/1999/02/22-rdf-syntax-ns#"
   xmlns:svg="http://www.w3.org/2000/svg"
   xmlns="http://www.w3.org/2000/svg"
   id="svg8"
   version="1.1"
   viewBox="0 0 134.86804 151.65475"
   height="151.65475mm"
   width="134.86804mm">
  <defs
     id="defs2" />
  <metadata
     id="metadata5">
    <rdf:RDF>
      <cc:Work
         rdf:about="">
        <dc:format>image/svg+xml</dc:format>
        <dc:type
           rdf:resource="http://purl.org/dc/dcmitype/StillImage" />
        <dc:title></dc:title>
      </cc:Work>
    </rdf:RDF>
  </metadata>
  <g
     transform="translate(-23.95833,-52.595232)"
     id="layer1">
    <path
       d="m 86.178576,130.69047 c 0.94596,-3.15421 4.71851,-0.28104 5.24249,1.57225 1.41997,5.02229 -3.93749,8.83799 -8.387,8.91274 -7.959126,0.13372 -13.190556,-7.83284 -12.582976,-15.20174 0.89164,-10.81417 11.765906,-17.63028 22.016486,-16.25324 13.662424,1.83538 22.104614,15.71039 19.923484,28.83125 -2.74472,16.51125 -19.659814,26.59632 -35.64599,23.59372 C 57.38366,158.50889 45.64704,138.53352 49.4811,119.68471 53.9994,97.472041 77.04681,84.078731 98.756586,88.750501 123.82138,94.144241 138.87469,120.2711 133.36105,144.84073 127.09609,172.75831 97.884766,189.47388 70.45606,183.11544 39.6852,175.98222 21.30574,143.6829 28.51111,113.3957 36.51043,79.771173 71.90033,59.72663 105.04559,67.78051 c 36.47851,8.863818 58.18906,47.34625 49.28544,83.34923 -4.89987,19.81331 -18.37986,36.84473 -36.3529,46.44964 M 26.45833,55.095232 H 154.97024 V 201.74999 H 26.45833 Z"
       style="fill:none;fill-rule:evenodd;stroke:#000000;stroke-width:5;stroke-miterlimit:4;stroke-dasharray:none"
       id="path817" />
  </g>
</svg>
